<svg width="45" height="46" viewBox="0 0 45 46" fill="none" xmlns="http://www.w3.org/2000/svg">
<g clip-path="url(#clip0_1_106)">
<path d="M41.6874 30.9041C40.362 34.0385 38.289 36.8005 35.6496 38.9485C33.0101 41.0966 29.8848 42.5655 26.5466 43.2266C23.2084 43.8877 19.759 43.7211 16.5001 42.7412C13.2413 41.7613 10.272 39.9981 7.85195 37.6055C5.43194 35.213 3.63485 32.2641 2.61781 29.0166C1.60078 25.7691 1.39474 22.3218 2.01774 18.9763C2.64073 15.6307 4.07378 12.4888 6.19159 9.82504C8.3094 7.16129 11.0475 5.05689 14.1665 3.6958" stroke="black" stroke-width="2.5" stroke-linecap="round" stroke-linejoin="round"/>
<path d="M43.3334 22.8001C43.3334 20.0642 42.7945 17.3552 41.7475 14.8276C40.7005 12.2999 39.166 10.0033 37.2314 8.06875C35.2969 6.13418 33.0002 4.59962 30.4726 3.55265C27.945 2.50567 25.2359 1.9668 22.5 1.9668V22.8001H43.3334Z" stroke="black" stroke-width="2.5" stroke-linecap="round" stroke-linejoin="round"/>
</g>
<defs>
<clipPath id="clip0_1_106">
<rect width="45" height="45" fill="white" transform="translate(0 0.300049)"/>
</clipPath>
</defs>
</svg>
