<svg width="45" height="46" viewBox="0 0 45 46" fill="none" xmlns="http://www.w3.org/2000/svg">
<g clip-path="url(#clip0_1_140)">
<path d="M20.4169 6.13354H5.83354C4.72847 6.13354 3.66867 6.57253 2.88727 7.35393C2.10587 8.13533 1.66688 9.19515 1.66688 10.3002V39.4669C1.66688 40.572 2.10587 41.6317 2.88727 42.4131C3.66867 43.1946 4.72847 43.6335 5.83354 43.6335H35.0003C36.1053 43.6335 37.1651 43.1946 37.9465 42.4131C38.7279 41.6317 39.1669 40.572 39.1669 39.4669V24.8835" stroke="black" stroke-width="2.5" stroke-linecap="round" stroke-linejoin="round"/>
<path d="M36.0419 3.00829C36.8706 2.17949 37.9947 1.71387 39.1669 1.71387C40.339 1.71387 41.4631 2.17949 42.2919 3.00829C43.1206 3.83709 43.5862 4.96119 43.5862 6.13329C43.5862 7.30539 43.1206 8.42949 42.2919 9.25829L22.5002 29.05L14.1669 31.1332L16.2502 22.8L36.0419 3.00829Z" stroke="black" stroke-width="2.5" stroke-linecap="round" stroke-linejoin="round"/>
</g>
<defs>
<clipPath id="clip0_1_140">
<rect width="45" height="45" fill="white" transform="translate(0 0.300049)"/>
</clipPath>
</defs>
</svg>
