<svg width="45" height="46" viewBox="0 0 45 46" fill="none" xmlns="http://www.w3.org/2000/svg">
<g clip-path="url(#clip0_1_89)">
<path d="M22.5002 43.6335C34.0061 43.6335 43.3335 34.3061 43.3335 22.8001C43.3335 11.2942 34.0061 1.9668 22.5002 1.9668C10.9943 1.9668 1.66687 11.2942 1.66687 22.8001C1.66687 34.3061 10.9943 43.6335 22.5002 43.6335Z" stroke="black" stroke-width="2.5" stroke-linecap="round" stroke-linejoin="round"/>
<path d="M22.5 35.3C29.4035 35.3 35 29.7035 35 22.8C35 15.8965 29.4035 10.3 22.5 10.3C15.5965 10.3 10 15.8965 10 22.8C10 29.7035 15.5965 35.3 22.5 35.3Z" stroke="black" stroke-width="2.5" stroke-linecap="round" stroke-linejoin="round"/>
<path d="M22.5004 26.9667C24.8016 26.9667 26.6671 25.1012 26.6671 22.8001C26.6671 20.4988 24.8016 18.6333 22.5004 18.6333C20.1992 18.6333 18.3337 20.4988 18.3337 22.8001C18.3337 25.1012 20.1992 26.9667 22.5004 26.9667Z" stroke="black" stroke-width="2.5" stroke-linecap="round" stroke-linejoin="round"/>
</g>
<defs>
<clipPath id="clip0_1_89">
<rect width="45" height="45" fill="white" transform="translate(0 0.300049)"/>
</clipPath>
</defs>
</svg>
